<?xml version="1.0" standalone="no"?>
<!DOCTYPE svg PUBLIC "-//W3C//DTD SVG 20010904//EN"
 "http://www.w3.org/TR/2001/REC-SVG-20010904/DTD/svg10.dtd">
<svg version="1.0" xmlns="http://www.w3.org/2000/svg"
 width="500.000000pt" height="500.000000pt" viewBox="0 0 500.000000 500.000000"
 preserveAspectRatio="xMidYMid meet">

<g transform="translate(0.000000,500.000000) scale(0.100000,-0.100000)"
fill="#000000" stroke="none">
<path d="M3068 4849 c-94 -22 -393 -118 -699 -225 -463 -161 -502 -174 -694
-244 -93 -34 -206 -74 -250 -90 -140 -48 -367 -141 -406 -166 -21 -13 -42 -32
-48 -42 -43 -80 -151 -2349 -151 -3174 l0 -247 87 -97 c52 -56 117 -115 159
-144 64 -42 81 -49 143 -55 131 -13 261 12 366 70 141 78 1321 561 1895 775
222 83 282 120 309 193 33 86 54 390 106 1527 55 1210 58 1280 53 1426 -6 194
-24 224 -130 224 -173 0 -352 65 -513 185 -62 46 -160 97 -182 94 -4 -1 -25
-5 -45 -10z m139 -105 c8 -24 -91 -67 -577 -246 -179 -66 -491 -182 -695 -258
-844 -316 -789 -298 -830 -260 -27 25 -33 71 -12 88 37 30 688 250 1512 512
275 87 516 163 535 168 41 12 62 11 67 -4z m121 -102 c3 -18 -12 -29 -100 -71
-215 -103 -979 -403 -1478 -581 -257 -91 -432 -133 -401 -96 21 25 455 198
1646 656 154 59 287 110 295 113 23 8 35 2 38 -21z m279 -138 c5 -14 -66 -43
-352 -144 -599 -212 -1297 -434 -1407 -447 -97 -12 -54 13 185 104 704 267
1220 447 1407 488 74 16 162 15 167 -1z m204 -489 c-22 -560 -85 -1761 -116
-2205 -18 -258 -32 -371 -48 -387 -24 -23 -740 -308 -1497 -595 -323 -122
-378 -141 -392 -132 -12 7 -10 64 16 419 8 116 20 311 26 435 54 1129 125
2258 143 2277 2 2 878 271 1172 360 293 89 483 144 595 173 l105 28 3 -41 c2
-23 -1 -172 -7 -332z m-2581 -204 l105 -46 130 1 c89 1 159 8 220 22 57 12 94
16 100 10 19 -18 1 -547 -26 -778 -6 -47 -15 -90 -22 -97 -7 -6 -57 -26 -112
-44 -95 -32 -107 -33 -255 -34 -141 0 -160 2 -206 23 -114 52 -126 85 -132
362 -4 205 11 620 23 640 7 11 42 -1 175 -59z m-158 -1017 c162 -82 271 -101
454 -80 71 9 150 19 177 24 42 9 47 8 47 -9 0 -57 -52 -931 -60 -1019 -22
-219 -34 -252 -102 -271 -53 -14 -401 -6 -468 11 -53 13 -104 50 -125 90 -20
38 -20 302 0 815 8 209 15 399 15 423 0 23 2 42 5 42 3 0 29 -12 57 -26z m43
-1475 c117 -40 217 -51 369 -39 66 5 133 10 149 10 l27 0 0 -348 0 -347 -82
-24 c-211 -62 -352 -76 -439 -46 -70 25 -138 74 -164 120 -24 41 -25 47 -25
236 0 178 12 391 25 447 7 30 33 29 140 -9z"/>
<path d="M2251 3684 c-65 -33 -111 -92 -111 -143 0 -27 16 -64 63 -141 136
-225 600 -894 786 -1133 87 -111 171 -175 333 -252 122 -58 168 -59 168 -6 -1
71 -69 277 -118 356 -37 59 -603 839 -869 1197 -119 160 -148 174 -252 122z
m119 -24 c18 -10 125 -148 119 -154 -2 -2 -27 -15 -54 -29 -28 -14 -75 -47
-104 -73 -29 -26 -56 -43 -60 -38 -5 5 -29 44 -54 87 -39 68 -44 83 -36 106
25 72 135 130 189 101z m160 -198 c0 -4 -24 -18 -52 -32 -29 -14 -77 -49 -107
-78 -37 -34 -58 -49 -65 -42 -14 14 77 98 149 137 54 29 75 33 75 15z m118
-154 c45 -62 181 -250 303 -418 394 -541 360 -489 345 -524 -11 -28 -16 -30
-50 -28 -47 4 -66 -11 -66 -54 0 -32 -1 -33 -30 -27 -24 4 -36 0 -54 -16 l-23
-22 -65 83 c-139 179 -618 860 -657 936 -10 19 -9 27 8 51 34 47 156 131 192
131 8 0 52 -51 97 -112z m745 -1068 c44 -112 44 -113 -4 -158 l-44 -40 -40 20
c-22 12 -75 43 -118 71 -89 56 -98 80 -32 85 50 4 65 17 65 53 0 27 3 29 40
29 35 0 44 5 58 29 l16 29 16 -26 c9 -15 28 -56 43 -92z"/>
<path d="M2569 3328 c144 -202 239 -329 449 -607 134 -177 245 -321 248 -321
15 0 -26 57 -323 453 -175 233 -333 444 -350 470 -18 26 -37 47 -43 47 -6 0 2
-19 19 -42z"/>
<path d="M2480 3312 c0 -15 93 -154 308 -462 179 -255 200 -283 311 -416 41
-49 76 -91 78 -93 2 -2 6 -2 9 2 3 3 -29 49 -72 102 -44 53 -97 120 -120 148
-45 57 -270 378 -409 582 -99 146 -105 154 -105 137z"/>
<path d="M2380 3274 c0 -3 118 -175 261 -382 256 -369 431 -602 451 -602 7 0
7 4 1 13 -6 6 -52 66 -104 132 -52 67 -206 284 -344 483 -221 319 -265 379
-265 356z"/>
<path d="M3395 1828 c-23 -13 -44 -38 -45 -54 0 -23 29 -47 66 -53 47 -8 51
-25 7 -29 -27 -3 -33 -7 -33 -28 0 -20 5 -24 29 -24 40 0 95 40 99 72 4 36
-22 58 -69 58 -46 0 -52 18 -9 27 41 8 43 43 3 43 -16 0 -37 -6 -48 -12z"/>
<path d="M3202 1750 c-38 -23 -55 -62 -47 -102 18 -81 151 -93 191 -16 14 28
14 28 -15 28 -15 0 -34 -7 -41 -15 -15 -18 -60 -20 -60 -2 0 6 23 21 52 32 59
23 66 33 41 64 -26 31 -80 37 -121 11z m65 -37 c4 -12 -46 -28 -56 -18 -8 8
30 36 43 32 5 -2 11 -8 13 -14z"/>
<path d="M3023 1750 c-26 -10 -28 -22 -12 -52 8 -15 8 -22 -1 -28 -16 -10 -3
-51 14 -44 8 3 19 -9 29 -34 27 -69 68 -90 111 -59 16 11 17 17 6 36 -6 12
-18 20 -25 17 -17 -6 -31 11 -40 45 -5 19 -2 28 8 32 24 9 9 49 -15 41 -15 -4
-22 1 -31 25 -12 34 -12 34 -44 21z"/>
<path d="M2680 1658 c-13 -5 -26 -10 -27 -12 -2 -2 10 -36 27 -76 17 -40 28
-75 26 -78 -3 -2 -36 18 -73 45 -37 27 -74 53 -81 57 -17 10 -74 -13 -69 -28
74 -184 101 -252 104 -255 2 -3 16 2 32 10 l29 14 -29 74 c-17 40 -28 75 -26
77 2 2 38 -21 81 -51 83 -59 83 -60 119 -46 l25 10 -50 128 c-28 70 -53 131
-57 134 -3 4 -17 3 -31 -3z"/>
<path d="M2844 1596 c-68 -68 -33 -156 62 -156 39 0 51 5 80 34 67 67 30 156
-63 156 -38 0 -50 -5 -79 -34z m100 -35 c31 -34 0 -80 -45 -66 -27 9 -34 43
-13 66 9 10 22 19 29 19 7 0 20 -9 29 -19z"/>
<path d="M2098 1427 c-28 -11 -28 -12 -28 -101 l-1 -91 -58 63 c-62 66 -65 67
-104 53 l-25 -10 40 -138 c22 -76 42 -139 43 -141 6 -7 55 22 55 32 0 6 -9 40
-20 76 -11 36 -20 67 -20 70 0 3 26 -24 58 -59 78 -86 92 -82 92 31 l1 83 35
-67 c35 -70 47 -78 78 -55 17 12 14 22 -45 140 -35 70 -66 127 -69 126 -3 -1
-17 -6 -32 -12z"/>
<path d="M2373 1418 c-19 -9 -23 -19 -23 -60 l0 -49 -31 23 c-17 13 -37 27
-44 32 -8 6 -24 5 -44 -3 l-31 -13 65 -52 65 -51 -3 -68 -4 -69 26 7 c14 4 29
9 33 13 4 4 11 54 17 112 6 58 14 124 17 148 6 45 -1 50 -43 30z"/>
</g>
</svg>
